<?xml version="1.0" standalone="no"?>
<!DOCTYPE svg PUBLIC "-//W3C//DTD SVG 20010904//EN"
 "http://www.w3.org/TR/2001/REC-SVG-20010904/DTD/svg10.dtd">
<svg version="1.0" xmlns="http://www.w3.org/2000/svg"
 width="128.000000pt" height="128.000000pt" viewBox="0 0 128.000000 128.000000"
 preserveAspectRatio="xMidYMid meet">
<metadata>
Created by potrace 1.11, written by Peter Selinger 2001-2013
</metadata>
<g transform="translate(0.000000,128.000000) scale(0.100000,-0.100000)"
fill="#000000" stroke="none">
<path d="M570 1211 c0 -4 -14 -7 -30 -6 -17 1 -33 -1 -35 -5 -3 -4 -21 -11
-40 -14 -19 -4 -35 -11 -35 -16 0 -6 -7 -10 -15 -10 -21 0 -115 -59 -115 -73
0 -5 -3 -8 -6 -5 -7 8 -78 -65 -112 -116 -40 -58 -72 -123 -65 -130 4 -3 1 -6
-5 -6 -6 0 -11 -8 -11 -17 0 -10 -4 -38 -10 -63 -5 -25 -7 -48 -5 -52 3 -5 1
-8 -3 -8 -11 0 -10 -71 0 -87 5 -8 3 -13 -3 -13 -6 0 -8 -5 -3 -12 4 -7 9 -24
10 -38 3 -21 8 -43 18 -82 2 -5 4 -10 5 -13 1 -3 3 -8 4 -12 1 -5 15 -35 31
-68 27 -55 175 -222 189 -213 3 1 16 -6 28 -17 13 -10 24 -18 25 -17 2 1 24
-8 49 -19 26 -11 56 -21 68 -24 12 -2 23 -4 26 -5 3 -1 13 -2 23 -1 9 1 17 -3
17 -9 0 -7 6 -8 19 0 13 6 22 7 26 0 8 -14 212 4 233 20 1 2 7 4 12 5 6 1 13
4 18 5 4 1 10 2 15 1 4 0 7 4 7 9 0 5 3 9 8 8 11 -2 45 13 64 30 10 8 18 13
18 9 0 -5 40 28 89 73 81 76 149 203 167 311 10 62 10 164 -1 171 -6 5 -6 8 2
8 9 0 10 7 3 25 -5 14 -6 25 -3 25 4 0 2 5 -5 12 -7 7 -12 20 -12 29 0 9 -7
33 -15 53 -8 20 -16 39 -17 43 -1 5 -8 14 -15 21 -7 7 -13 20 -13 27 0 8 -35
49 -78 92 -77 78 -195 151 -250 156 -12 1 -22 5 -22 9 0 4 -9 5 -20 3 -11 -2
-22 0 -24 4 -7 11 -206 12 -206 2z"/>
</g>
</svg>
